<svg xmlns="http://www.w3.org/2000/svg" viewBox="0 0 512 512" id="ukraine">
<path style="fill:#FDCE0C;" d="M0,248v121.6C0,396.8,21.6,416,48,416h400c26.4,0,48-19.2,48-46.4V248H0z"/>
<path style="fill:#F4BA00;" d="M248,248l197.6,168c26.4,0,50.4-19.2,50.4-46.4V248H248z"/>
<path style="fill:#44C1EF;" d="M448,80H48C21.6,80,0,99.2,0,126.4V248h496V126.4C496,99.2,474.4,80,448,80z"/>
<path style="fill:#18B4EA;" d="M448,80H48l200,168h248V126.4C496,99.2,474.4,80,448,80z"/>
<path style="fill:#F2A700;" d="M496,368.8c0,29.6-21.6,47.2-48,47.2H48c-26.4,0-48-20.8-48-48"/>
<path style="fill:#10A2E2;" d="M48,80h400c26.4,0,48,19.2,48,46.4V216"/>
<g>
</g>
<g>
</g>
<g>
</g>
<g>
</g>
<g>
</g>
<g>
</g>
<g>
</g>
<g>
</g>
<g>
</g>
<g>
</g>
<g>
</g>
<g>
</g>
<g>
</g>
<g>
</g>
<g>
</g>
</svg>
